<?xml version="1.0"?>
<svg xmlns="http://www.w3.org/2000/svg" height="512px" viewBox="-27 0 512 512.0192" width="512px"><g><path d="m151.972656 303.507812c-4.625.925782-8.367187 4.320313-9.738281 8.832032l-2.210937 7.226562c-39.140626 13.722656-87.386719 33.03125-104.265626 49.910156-21.683593 21.675782-31.644531 86.804688-35.652343 123.683594-.507813 4.804688 1.042969 9.601563 4.273437 13.195313 3.230469 3.597656 7.832032 5.652343 12.664063 5.664062h424.960937c4.839844 0 9.453125-2.054687 12.691406-5.65625 3.238282-3.601562 4.792969-8.40625 4.28125-13.21875-4.011718-36.890625-13.96875-102.015625-35.652343-123.691406-16.878907-16.878906-65.128907-36.191406-104.269531-49.910156l-2.210938-7.222657c-1.835938-6.367187-8.328125-10.191406-14.789062-8.710937-.800782-2.5-1.542969-4.878906-2.167969-6.964844 11.085937-10.410156 19.101562-23.664062 23.179687-38.3125 2.40625-9.179687 3.773438-18.605469 4.070313-28.09375 12.261719-.875 22.148437-10.382812 23.5-22.601562l4.660156-42.429688c.128906-1.011719.191406-2.035156.179687-3.054687-.007812-5.671875-1.910156-11.175782-5.402343-15.640625 6.585937-21.878907 18.617187-72.449219-20.652344-111.71875-30.777344-30.804688-75.492187-34.960938-99.667969-34.7734378h-.121094c-24.300781-.3515622-69.121093 3.8124998-100.011718 34.7656248-39.25 39.253906-27.238282 89.820313-20.65625 111.707032-3.492188 4.476562-5.390625 9.984374-5.394532 15.660156-.015624.941406.03125 1.882812.136719 2.816406l4.695313 42.667969c1.347656 12.21875 11.234375 21.734375 23.5 22.613281.296875 9.492188 1.664062 18.921875 4.078125 28.105469 4.074219 14.644531 12.085937 27.890625 23.160156 38.300781-.617187 2.089844-1.359375 4.46875-2.167969 6.960938-1.644531-.375-3.34375-.410157-5-.109376zm77.550782 20.777344c19.746093-.648437 39.007812-6.273437 56.003906-16.347656.808594 2.558594 1.707031 5.179688 2.671875 7.875l-12.800781 15.574219c-29.121094 13.289062-62.570313 13.289062-91.691407 0l-12.800781-15.582031c.964844-2.6875 1.859375-5.34375 2.671875-7.867188 16.976563 10.070312 36.21875 15.691406 55.945313 16.347656zm-57.796876 19.429688.246094.308594 31.949219 38.792968v50.59375l-47.90625-107.792968.214844-.71875zm69.265626 29.425781c-1.894532 2.289063-2.933594 5.167969-2.9375 8.140625v113.671875h-17.066407v-113.671875c-.003906-2.96875-1.035156-5.84375-2.925781-8.132812l-14.269531-17.289063c16.976562 3.46875 34.480469 3.46875 51.457031 0zm14.128906 9.675781 31.949218-38.792968.25-.308594 15.496094-18.773438.210938.71875-47.90625 107.75zm-136.53125 35.335938c9.425781 0 17.066406 7.640625 17.066406 17.066406s-7.640625 17.066406-17.066406 17.066406c-9.425782 0-17.066406-7.640625-17.066406-17.066406s7.640624-17.066406 17.066406-17.066406zm-101.546875 76.800781c4.871093-44.851563 15.511719-98.21875 30.71875-113.492187 9.921875-8.25 21.019531-14.972657 32.921875-19.945313-.773438 17.578125 3.972656 34.953125 13.570312 49.699219-11.4375 11.558594-13.128906 29.582031-4.046875 43.070312 9.082031 13.484375 26.417969 18.695313 41.429688 12.445313 15.011719-6.246094 23.53125-22.214844 20.359375-38.164063-3.167969-15.949218-17.148438-27.445312-33.40625-27.480468-3.25.046874-6.476563.5625-9.574219 1.535156-9.632813-14.429688-13.277344-32.039063-10.164063-49.109375 12.671876-5.332031 27.308594-10.9375 43.46875-16.683594l54.179688 121.890625c1.421875 3.207031 4.109375 5.679688 7.421875 6.828125v29.40625zm424.960937 0h-186.882812v-29.441406c3.316406-1.148438 6.007812-3.621094 7.433594-6.824219l54.171874-121.859375c6.96875 2.46875 13.652344 4.917969 20.007813 7.324219 3.367187 10.371094 5.734375 21.039062 7.074219 31.863281-11.878906 2.472656-20.398438 12.933594-20.417969 25.070313.027344 2.214843.347656 4.414062.953125 6.546874-29.96875 18.199219-44.789062 35.265626-43.5625 50.78125.929688 11.679688 10.242188 20.921876 27.65625 27.460938 2.886719 1.203125 6.195312.730469 8.632812-1.226562 2.4375-1.957032 3.605469-5.089844 3.054688-8.164063-.554688-3.074219-2.746094-5.601563-5.710938-6.585937-10.386718-3.898438-16.292968-8.457032-16.640624-12.800782-.496094-6.1875 8.832031-18.96875 36.128906-35.378906 4.367187 3.226562 9.65625 4.96875 15.085937 4.96875h8.535157c5.425781-.015625 10.703124-1.769531 15.0625-5.003906 27.304687 16.410156 36.625 29.195312 36.128906 35.382812-.351563 4.375-6.253906 8.933594-16.640625 12.796875-2.964844.984375-5.15625 3.511719-5.710938 6.585938-.554687 3.078125.617188 6.210937 3.054688 8.167969 2.433593 1.957031 5.746093 2.425781 8.628906 1.222656 17.425781-6.539063 26.726563-15.777344 27.65625-27.460938 1.230469-15.503906-13.558594-32.582031-43.5625-50.78125.613281-2.117187.941406-4.308594.980469-6.511718-.054688-12.777344-9.523438-23.554688-22.183594-25.257813-.820312-8.015625-2.230469-15.957031-4.21875-23.765625 27.597656 11.417969 46.746094 21.683594 54.519531 29.457031 15.214844 15.238281 25.859375 68.605469 30.765625 113.433594zm-84.480468-85.332031h-8.535157c-4.710937 0-8.53125-3.824219-8.53125-8.535156 0-4.714844 3.820313-8.535157 8.53125-8.535157h8.535157c4.710937 0 8.53125 3.820313 8.53125 8.535157 0 4.710937-3.820313 8.535156-8.53125 8.535156zm-98.601563-188.050782-4.371094-11.296874c-1.699219-4.394532-6.640625-6.582032-11.035156-4.882813-3.707031 1.46875-5.871094 5.339844-5.1875 9.265625-5.765625-1.53125-11.835937-1.53125-17.601563 0 .671876-3.921875-1.496093-7.785156-5.199218-9.25-4.394532-1.695312-9.332032.488281-11.03125 4.882812l-4.363282 11.28125c-13.277343 3.074219-27.234374.609376-38.65625-6.828124-5.050781-3.472657-9.164062-6.671876-12.261718-9.25.222656-3.675782.539062-7.558594.921875-11.648438 4.941406-5.734375 9.417969-11.851562 13.390625-18.292969.042968.050781.058594.117188.101562.167969 3.257813 3.398438 8.65625 3.515625 12.058594.257812 13.269531-12.707031 22.363281-7.023437 23.457031-6.253906 3.738281 2.875 9.101563 2.171875 11.976563-1.566406s2.171875-9.101562-1.566406-11.976562c-11.140626-7.484376-25.753907-7.289063-36.691407.484374 2.277344-5.960937 3.882813-12.160156 4.785157-18.480468 41.453124 5.675781 83.640624-1.761719 120.652343-21.265625.273438 4.914062.691407 10.9375 1.332031 17.824219.058594.394531.140626.785156.246094 1.171874 0 .144532 0 .296876.070313.449219 2.925781 14.507813 4.984375 26.214844 6.484375 36.992188 1.707031 11.453125 2.800781 22.1875 3.414062 32.144531-3.097656 2.5625-7.195312 5.761719-12.230468 9.21875-11.425782 7.460938-25.402344 9.9375-38.695313 6.851562zm74.757813-15.796874c-.414063 3.519531-2.992188 6.398437-6.441407 7.195312-.476562-13.875-1.761719-27.707031-3.847656-41.429688v-11.347656c0-3.628906 2.941406-6.570312 6.570313-6.570312 1.859374-.007813 3.664062.621094 5.117187 1.78125 2.066406 1.636718 3.289063 4.117187 3.328125 6.75zm-191.992188-158.914063c19.371094-19.363281 51.652344-30.191406 87.835938-29.773437h.265624c36.179688-.417969 68.265626 10.417968 87.566407 29.753906 28.160156 28.160156 24.832031 63.394531 17.605469 90.242187-1.644532-.34375-3.320313-.523437-5-.53125-4.210938.019531-8.339844 1.175781-11.949219 3.347657-.476563-2.433594-.9375-4.839844-1.464844-7.433594-1.691406-18.097656-1.691406-29.925782-1.691406-30.046875.003906-3.148438-1.730469-6.046875-4.507813-7.53125-2.78125-1.484375-6.152344-1.320313-8.769531.433593-1.339844.894532-2.765625 1.707032-4.265625 2.558594-37.871094 22.007813-82.359375 29.761719-125.441406 21.863282-2.550782-.640626-5.253906-.070313-7.328125 1.546874-2.074219 1.617188-3.289063 4.101563-3.285157 6.730469-.246093 11.21875-3.171874 22.210938-8.535156 32.066407-.066406-13.007813-10.625-23.523438-23.636718-23.535157-1.679688.015625-3.355469.199219-5 .546875-7.203126-26.84375-10.617188-62.042968 17.601562-90.238281zm-16.324219 158.90625-4.691406-42.664063c0-.078124 0-.855468 0-.949218.027344-2.613282 1.222656-5.078125 3.257813-6.714844 1.460937-1.179688 3.28125-1.820312 5.15625-1.816406 3.628906 0 6.570312 2.941406 6.570312 6.570312v11.347656c-.910156 6.011719-1.664062 11.988282-2.261719 17.921876-.851562 8.640624-1.398437 16.382812-1.621093 23.523437-3.441407-.816406-6.003907-3.703125-6.410157-7.21875zm27.042969 47.941406c-2.242188-8.847656-3.429688-17.933593-3.539062-27.058593.980468.699218 1.902343 1.382812 2.960937 2.105468 16.609375 10.894532 37.164063 13.945313 56.226563 8.347656.496093-.089843.984374-.222656 1.457031-.394531 4.386719-1.210937 8.667969-2.773437 12.800781-4.675781 4.59375-2.183594 9.929688-2.160156 14.507812.058594 4.148438 1.90625 8.445313 3.472656 12.847657 4.6875.304687.105468.617187.195312.933593.265625 6.453126 1.796875 13.121094 2.738281 19.820313 2.796875 13.109375.117187 25.941406-3.75 36.796875-11.09375 1.050781-.714844 1.980469-1.398438 2.960938-2.097656-.117188 9.121093-1.304688 18.195312-3.542969 27.042968-3.585938 13.261719-11.210938 25.082032-21.816407 33.816406-15.980468 12.082032-35.28125 18.960938-55.296874 19.710938-20.039063-.699219-39.371094-7.589844-55.332032-19.730469-10.589844-8.726562-18.203125-20.535156-21.785156-33.78125zm0 0" data-original="#000000" class="active-path" data-old_color="#000000" fill="#A38D60"/><path d="m203.921875 187.753906c0 4.710938-3.820313 8.53125-8.53125 8.53125-4.714844 0-8.535156-3.820312-8.535156-8.53125 0-4.714844 3.820312-8.535156 8.535156-8.535156 4.710937 0 8.53125 3.820312 8.53125 8.535156zm0 0" data-original="#000000" class="active-path" data-old_color="#000000" fill="#A38D60"/><path d="m272.1875 187.753906c0 4.710938-3.820312 8.53125-8.53125 8.53125-4.714844 0-8.535156-3.820312-8.535156-8.53125 0-4.714844 3.820312-8.535156 8.535156-8.535156 4.710938 0 8.53125 3.820312 8.53125 8.535156zm0 0" data-original="#000000" class="active-path" data-old_color="#000000" fill="#A38D60"/><path d="m283.726562 175.917969c2.1875 2.1875 5.386719 3.019531 8.367188 2.175781 2.976562-.84375 5.261719-3.234375 5.972656-6.246094.710938-3.011718-.261718-6.171875-2.546875-8.261718-19.625-18.773438-38.460937-13.097657-45.660156-7.449219-3.714844 2.90625-4.363281 8.273437-1.457031 11.984375 2.90625 3.710937 8.273437 4.363281 11.984375 1.457031.078125-.078125 9.34375-7.058594 23.339843 6.339844zm0 0" data-original="#000000" class="active-path" data-old_color="#000000" fill="#A38D60"/></g> </svg>
