<?xml version="1.0"?>
<svg xmlns="http://www.w3.org/2000/svg" height="512px" viewBox="0 0 512 512.01736" width="512px"><g><path d="m88.617188 512.015625h107.65625c14.140624 0 25.601562-11.460937 25.601562-25.597656v-99.117188c.042969-15.847656-6.257812-31.054687-17.5-42.230469l-94.859375-94.777343c-10.878906-11.050781-27.890625-13.265625-41.242187-5.367188v-74.242187c0-18.851563-15.28125-34.132813-34.132813-34.132813s-34.1328125 15.28125-34.1328125 34.132813v119.46875c0 29.523437 45.2265625 153.367187 64.6328125 205.234375 3.765625 9.980469 13.308594 16.597656 23.976563 16.628906zm-71.542969-341.332031c0-9.425782 7.640625-17.066406 17.066406-17.066406s17.066406 7.640624 17.066406 17.066406v103.679687c.019531 9.0625 3.628907 17.746094 10.035157 24.148438 14.074218 13.945312 26.34375 27.308593 39.324218 41.386719 9.488282 10.320312 19.308594 20.992187 29.867188 31.863281 10.078125 10.402343 17.203125 18.597656 17.203125 29.324219 0 4.710937 3.820312 8.53125 8.53125 8.53125 4.714843 0 8.535156-3.820313 8.535156-8.53125 0-18.476563-12.230469-31.082032-22.050781-41.210938-10.410156-10.726562-20.011719-21.167969-29.542969-31.527344-12.542969-13.65625-25.515625-27.734375-39.789063-41.875-4.621093-4.234375-6.546874-10.65625-5.023437-16.734375s6.257813-10.832031 12.328125-12.382812 12.503906.351562 16.757812 4.949219l94.925782 94.832031c8.027344 7.984375 12.527344 18.84375 12.5 30.164062v99.117188c0 4.710937-3.820313 8.53125-8.535156 8.53125h-107.65625c-3.554688-.011719-6.734376-2.214844-7.992188-5.535157-30.722656-82.015624-63.550781-177.425781-63.550781-199.261718zm0 0" data-original="#000000" class="active-path" data-old_color="#000000" fill="#A38D60"/><path d="m477.875 136.550781c-18.851562 0-34.132812 15.28125-34.132812 34.132813v74.242187c-13.324219-7.875-30.292969-5.691406-41.191407 5.296875l-94.90625 94.847656c-11.242187 11.175782-17.546875 26.382813-17.503906 42.230469v99.117188c0 14.136719 11.464844 25.597656 25.601563 25.597656h107.65625c10.667968-.027344 20.207031-6.640625 23.980468-16.621094 19.402344-51.875 64.628906-175.71875 64.628906-205.242187v-119.46875c0-18.851563-15.28125-34.132813-34.132812-34.132813zm-46.480469 352.863281c-1.261719 3.320313-4.441406 5.523438-7.996093 5.535157h-107.65625c-4.714844 0-8.535157-3.820313-8.535157-8.53125v-99.117188c-.027343-11.320312 4.476563-22.179687 12.503907-30.164062l94.957031-94.882813c4.894531-4.839844 12.214843-6.269531 18.570312-3.625 6.351563 2.648438 10.496094 8.851563 10.503907 15.734375-.019532 4.511719-1.808594 8.832031-4.984376 12.03125-14.351562 14.21875-27.304687 28.316407-39.867187 41.953125-9.53125 10.359375-19.132813 20.800782-29.542969 31.570313-9.820312 10.085937-22.03125 22.691406-22.03125 41.167969 0 4.710937 3.820313 8.53125 8.53125 8.53125 4.714844 0 8.535156-3.820313 8.535156-8.53125 0-10.726563 7.140626-18.921876 17.238282-29.324219 10.535156-10.871094 20.359375-21.542969 29.863281-31.863281 12.980469-14.113282 25.25-27.441407 39.398437-41.460938 6.359376-6.398438 9.929688-15.054688 9.925782-24.074219v-103.679687c0-9.425782 7.640625-17.066406 17.066406-17.066406s17.066406 7.640624 17.066406 17.066406v119.46875c0 21.835937-32.828125 117.246094-63.546875 199.261718zm0 0" data-original="#000000" class="active-path" data-old_color="#000000" fill="#A38D60"/><path d="m328.054688 231.550781c3.6875-14.671875 6.226562-29.609375 7.585937-44.679687 1.683594-12.5 5.738281-24.566406 11.949219-35.550782 2.15625-4.050781 4.519531-7.941406 6.875-11.835937 4.78125-7.433594 8.910156-15.265625 12.339844-23.414063 11.777343-30.027343 14.867187-71.210937-11.792969-96.742187-25.316407-24.3125-69.835938-25.660156-99.003907-4.207031-29.148437-21.445313-73.667968-20.113282-98.984374 4.207031-26.667969 25.539063-23.578126 66.722656-11.804688 96.757813 3.4375 8.140624 7.566406 15.96875 12.347656 23.398437 2.355469 3.894531 4.71875 7.785156 6.886719 11.835937 6.207031 10.988282 10.261719 23.054688 11.949219 35.558594 1.359375 15.042969 3.890625 29.957032 7.566406 44.605469 2.867188 10.734375 8.894531 33.066406 28.859375 33.066406 6.417969 0 23.476563 0 34.355469-78.082031 1.769531-12.472656 6.121094-14.25 8.824218-14.691406 2.707032.441406 7.058594 2.21875 8.824219 14.675781 10.878907 78.097656 27.9375 78.097656 34.355469 78.097656 19.96875 0 25.992188-22.332031 28.867188-33zm-46.316407-47.46875c-3.167969-22.367187-15.207031-28.332031-24.75-29.390625-.324219.011719-.648437.042969-.972656.09375-.324219-.050781-.65625-.082031-.988281-.09375-9.539063 1.058594-21.582032 7.023438-24.746094 29.40625-6.648438 47.726563-15.359375 62.046875-17.453125 63.386719-6.363281 0-9.734375-10.546875-12.421875-20.480469-3.46875-13.800781-5.835938-27.851562-7.082031-42.027344-1.902344-14.644531-6.59375-28.789062-13.824219-41.667968-2.304688-4.324219-4.824219-8.488282-7.339844-12.644532-4.28125-6.609374-7.992187-13.570312-11.09375-20.804687-9.308594-23.742187-12.867187-58.453125 7.730469-78.191406 20.601563-19.738281 59.375-19.355469 81.433594.777343.085937.074219.199219.101563.28125.167969.085937.070313.136719.199219.242187.273438.253906.199219 25.675782 20.164062 31.914063 41.464843 1.0625 3.640626 4.398437 6.144532 8.191406 6.144532.8125 0 1.621094-.117188 2.398437-.351563 2.171876-.632812 4.003907-2.109375 5.089844-4.09375 1.085938-1.984375 1.339844-4.324219.703125-6.496093-6.117187-16.515626-16.25-31.253907-29.484375-42.878907 22.546875-14.113281 55.28125-12.59375 73.609375 5 20.59375 19.730469 17.066407 54.441407 7.679688 78.175781-3.097657 7.238282-6.808594 14.203126-11.09375 20.8125-2.558594 4.15625-5.03125 8.320313-7.328125 12.636719-7.234375 12.875-11.929688 27.023438-13.832032 41.667969-1.25 14.199219-3.625 28.273438-7.101562 42.09375-2.671875 9.890625-6.039062 20.4375-11.648438 20.582031-2.710937-1.5-11.46875-15.820312-18.113281-63.5625zm0 0" data-original="#000000" class="active-path" data-old_color="#000000" fill="#A38D60"/><path d="m192.1875 35.191406c-17.222656 9.984375-26 29.972656-21.691406 49.410156 1.011718 4.566407 5.511718 7.46875 10.089844 6.507813 4.578124-.964844 7.527343-5.4375 6.609374-10.023437-2.722656-12.078126 2.601563-24.539063 13.210938-30.917969 4.128906-2.269531 5.640625-7.457031 3.371094-11.589844-2.269532-4.128906-7.457032-5.636719-11.589844-3.371094zm0 0" data-original="#000000" class="active-path" data-old_color="#000000" fill="#A38D60"/><path d="m59.742188 25.617188c-4.714844 0-8.535157 3.820312-8.535157 8.535156v17.066406c0 4.710938 3.820313 8.53125 8.535157 8.53125 4.710937 0 8.53125-3.820312 8.53125-8.53125v-17.066406c0-4.714844-3.820313-8.535156-8.53125-8.535156zm0 0" data-original="#000000" class="active-path" data-old_color="#000000" fill="#A38D60"/><path d="m51.207031 102.417969c0 4.710937 3.820313 8.53125 8.535157 8.53125 4.710937 0 8.53125-3.820313 8.53125-8.53125v-17.066407c0-4.714843-3.820313-8.535156-8.53125-8.535156-4.714844 0-8.535157 3.820313-8.535157 8.535156zm0 0" data-original="#000000" class="active-path" data-old_color="#000000" fill="#A38D60"/><path d="m76.808594 76.816406h17.066406c4.714844 0 8.535156-3.820312 8.535156-8.53125 0-4.714844-3.820312-8.535156-8.535156-8.535156h-17.066406c-4.710938 0-8.535156 3.820312-8.535156 8.535156 0 4.710938 3.824218 8.53125 8.535156 8.53125zm0 0" data-original="#000000" class="active-path" data-old_color="#000000" fill="#A38D60"/><path d="m42.675781 59.75h-17.066406c-4.714844 0-8.535156 3.820312-8.535156 8.535156 0 4.710938 3.820312 8.53125 8.535156 8.53125h17.066406c4.710938 0 8.53125-3.820312 8.53125-8.53125 0-4.714844-3.820312-8.535156-8.53125-8.535156zm0 0" data-original="#000000" class="active-path" data-old_color="#000000" fill="#A38D60"/><path d="m452.273438 25.617188c-4.710938 0-8.53125 3.820312-8.53125 8.535156v17.066406c0 4.710938 3.820312 8.53125 8.53125 8.53125 4.714843 0 8.535156-3.820312 8.535156-8.53125v-17.066406c0-4.714844-3.820313-8.535156-8.535156-8.535156zm0 0" data-original="#000000" class="active-path" data-old_color="#000000" fill="#A38D60"/><path d="m443.742188 102.417969c0 4.710937 3.820312 8.53125 8.53125 8.53125 4.714843 0 8.535156-3.820313 8.535156-8.53125v-17.066407c0-4.714843-3.820313-8.535156-8.535156-8.535156-4.710938 0-8.53125 3.820313-8.53125 8.535156zm0 0" data-original="#000000" class="active-path" data-old_color="#000000" fill="#A38D60"/><path d="m469.34375 76.816406h17.066406c4.710938 0 8.53125-3.820312 8.53125-8.53125 0-4.714844-3.820312-8.535156-8.53125-8.535156h-17.066406c-4.714844 0-8.535156 3.820312-8.535156 8.535156 0 4.710938 3.820312 8.53125 8.535156 8.53125zm0 0" data-original="#000000" class="active-path" data-old_color="#000000" fill="#A38D60"/><path d="m435.207031 59.75h-17.066406c-4.710937 0-8.53125 3.820312-8.53125 8.535156 0 4.710938 3.820313 8.53125 8.53125 8.53125h17.066406c4.714844 0 8.535157-3.820312 8.535157-8.53125 0-4.714844-3.820313-8.535156-8.535157-8.535156zm0 0" data-original="#000000" class="active-path" data-old_color="#000000" fill="#A38D60"/><path d="m286.175781 277.042969c-3.335937-3.332031-8.734375-3.332031-12.066406 0l-12.066406 12.074219c-2.21875 2.144531-3.109375 5.316406-2.328125 8.300781.78125 2.980469 3.109375 5.3125 6.09375 6.09375s6.15625-.109375 8.300781-2.328125l12.066406-12.074219c3.328125-3.332031 3.328125-8.734375 0-12.066406zm0 0" data-original="#000000" class="active-path" data-old_color="#000000" fill="#A38D60"/><path d="m237.910156 313.25-12.066406 12.074219c-2.21875 2.144531-3.109375 5.316406-2.328125 8.300781.78125 2.980469 3.113281 5.3125 6.09375 6.09375 2.984375.78125 6.15625-.109375 8.300781-2.328125l12.066406-12.074219c3.234376-3.347656 3.1875-8.671875-.105468-11.960937-3.292969-3.292969-8.613282-3.339844-11.960938-.105469zm0 0" data-original="#000000" class="active-path" data-old_color="#000000" fill="#A38D60"/><path d="m274.109375 313.25c-3.351563-3.234375-8.671875-3.1875-11.964844.105469-3.289062 3.289062-3.335937 8.613281-.101562 11.960937l12.066406 12.074219c2.140625 2.21875 5.3125 3.109375 8.296875 2.328125s5.3125-3.113281 6.09375-6.09375c.78125-2.984375-.109375-6.15625-2.324219-8.300781zm0 0" data-original="#000000" class="active-path" data-old_color="#000000" fill="#A38D60"/><path d="m249.976562 289.117188-12.066406-12.074219c-3.347656-3.234375-8.671875-3.1875-11.960937.105469-3.292969 3.289062-3.339844 8.613281-.105469 11.960937l12.066406 12.074219c3.347656 3.234375 8.667969 3.1875 11.960938-.101563 3.292968-3.292969 3.339844-8.617187.105468-11.964843zm0 0" data-original="#000000" class="active-path" data-old_color="#000000" fill="#A38D60"/></g> </svg>
